<svg xmlns="http://www.w3.org/2000/svg" width="834.73188" height="525.85234" viewBox="0 0 834.73188 525.85234" xmlns:xlink="http://www.w3.org/1999/xlink"><g><path id="uuid-8afa1346-7cf1-4944-a746-ecc40cd61e0e-196" d="M450.99825,300.08366c11.48847-4.07769,22.9048-1.45526,25.49867,5.8565,2.59387,7.31176-4.61653,16.54237-16.10964,20.61998-4.56868,1.69181-9.47609,2.26492-14.31165,1.67133l-48.89529,16.66263-7.33021-23.11179,48.98033-13.97266c3.38072-3.51014,7.55307-6.1594,12.16779-7.72599Z" fill="#ffb6b6"/><path d="M433.21135,334.68763l-96.5013,44.76726-.24184,.11242-78.4631-47.90979c-7.24582-4.42494-11.6499-12.13482-11.78099-20.62525-.13002-8.49023,4.03594-16.3321,11.14408-20.97689,8.90469-5.81842,20.47753-5.27422,28.79698,1.35424l57.85439,46.09921,81.99202-30.10461,7.19975,27.28341Z" fill="#e6e6e6"/></g><path d="M0,485.79528c0,.66003,.53003,1.19,1.19006,1.19H787.48004c.65997,0,1.19-.52997,1.19-1.19,0-.65997-.53003-1.19-1.19-1.19H1.19006c-.66003,0-1.19006,.53003-1.19006,1.19Z" fill="#3f3d56"/><g><polygon points="309.05228 299.89321 315.51896 259.4765 271.86891 241.69315 265.40224 303.12655 309.05228 299.89321" fill="#ffb6b6"/><circle cx="298.02161" cy="227.9564" r="44.51262" fill="#ffb6b6"/></g><g><path d="M253.83724,517.83984c2.90997,1.28027,6.01996,2.5,9.35999,3.66016,49.87,17.29004,107.69-20.69043,140.84998-48.07031,16.71002-13.80957,27.15002-24.92969,27.15002-24.92969l32.71997,16.36035,21.79004,10.88965h.01001l4.22998,2.12988c.01001,0,.02002,.00977,.02002,.00977l12.88995,6.44043,19.94,9.96973,2.40002,1.2002,1.64001,.48047,29.35999,8.51953,6-21s-2.04999-1.83008-5.64001-5c-21.85999-19.25977-100.75-87.84961-121.35999-93-9.34998-2.33984-29.29999,5.33008-50.19,15.57031-32.76001,16.05957-67.81,38.42969-67.81,38.42969l-14-20-48.20001,10.87988-18.28998,4.12988-11.01001,2.49023s-34.23999,53.41016,28.14001,80.83984Z" fill="#2f2e41"/><path d="M554.19723,480.5s7-7,11-4,8,7,8,7c0,0,31,2,32,17,1,15-21,20-21,20,0,0-72,6-72-4,0-10,10.60157-22.19921,10.60157-22.19921,0,0,34.39843-5.80079,31.39843-13.80079Z" fill="#2f2e41"/></g><g><path d="M253.83724,517.83984c53.79999-19.76953,100.35999-69.33984,100.35999-69.33984l49.84998,24.92969,41.75,20.87012,2.40002,1.2002,31,9,6-21s-2.04999-1.83008-5.64001-5c-3.73999-3.29004-9.14996-8.03027-15.64001-13.63965-21.33997-18.44043-54.45996-46.37012-78.90997-63.79004-32.76001,16.05957-67.81,38.42969-67.81,38.42969l-14-20-48.20001,10.87988c-9.03998,5.44043-14.79999,9.12012-14.79999,9.12012l-3.48999-4.99023-11.01001,2.49023s-34.23999,53.41016,28.14001,80.83984Z" fill="#2f2e41"/><path d="M477.19723,480.5s7-7,11-4c4,3,8,7,8,7,0,0,31,2,32,17,1,15-21,20-21,20,0,0-72,6-72-4,0-10,10.60157-22.19921,10.60157-22.19921,0,0,34.39843-5.80079,31.39843-13.80079Z" fill="#2f2e41"/></g><path d="M230.86275,360.18262c2.15918-29.26855,14.04199-57.50684,33.45947-79.51367l.19067-.21582,50.56543,10.11328,11.06519,32.69238c7.05078,20.83301,5.37207,44.02148-4.60571,63.62012l-12.31836,24.19727,4.07202,22.39746-87.57129,4.02539-.56299,.02637,5.70557-77.34277Z" fill="#e6e6e6"/><g><path d="M678.82469,90.60093h36.48566v1.37559c0,9.05546-7.35188,16.40734-16.40734,16.40734h-3.67098c-9.05546,0-16.40734-7.35188-16.40734-16.40734v-1.37559h0Z" fill="#3f3d56"/><path d="M795.67798,70.54903l-62.95225-13.41594-.32764-3.66126c-.02425-.27127-.06093-.54075-.10405-.80902l29.77312-13.11113c3.06602-5.51884,8.27826-2.45282,8.27826-2.45282,0,0,10.11787,1.53301,7.97166-8.27826s-15.94331-2.75942-15.94331-2.75942l-36.17239,11.26673-5.91115-14.04052c-1.81948-4.32177-6.05195-7.13209-10.74111-7.13209h-21.04334c-4.5027,0-8.60256,2.59384-10.5311,6.66261l-6.92958,14.61959-36.52443-11.37632s-13.7971-7.05185-15.94331,2.75942,7.97166,8.27826,7.97166,8.27826c0,0,5.21224-3.06602,8.27826,2.45282l29.13461,12.82998-.57061,1.20365c-.58903,1.24288-.9481,2.57767-1.07154,3.94181l-61.10331,13.02191c-5.14393,1.09646-8.00927,6.6141-5.94704,11.45237l1.44057,3.37981c2.09299,4.91072,8.26928,6.73656,12.53783,3.53131,1.51497-1.13748,2.58434-2.79565,2.58434-5.21014l51.20009-11.91976c3.09634,13.58541,15.25076,23.72394,29.77394,23.72394h9.96068c14.74262,0,26.87297-10.39453,29.84213-24.01557l52.45337,12.21139c0,2.41449,1.06936,4.07266,2.58434,5.21014,4.26855,3.20525,10.44483,1.37941,12.53783-3.53131l1.44057-3.37981c2.06223-4.83827-.80311-10.35591-5.94708-11.45237Z" fill="#3f3d56"/><path d="M766.3596,15.41823L735.39279,0s-3.20363,.13761-1.75512,1.75512,34.86815,17.25422,34.86815,17.25422l-2.14622-3.59111Z" fill="#f50057"/><path d="M774.63786,21.76875s1.53301,5.82544,6.74525,9.19806,34.33944,11.65088,34.33944,11.65088l4.29243-2.75942-32.19323-17.78292-10.73108-1.22641-2.45282,.91981Z" fill="#f50057"/><path d="M795.11767,73.4544s5.74028,1.82623,11.38036-.76828c5.64008-2.59451,28.23385-22.75499,28.23385-22.75499l-.0306-5.10278-32.26205,17.65776-6.78427,8.40439-.53729,2.56392Z" fill="#f50057"/><path d="M797.95205,74.17428s-4.82364-3.6081-11.00271-3.00719c-6.17907,.60091-34.13577,12.23477-34.13577,12.23477l-1.6449,4.83049,36.2691-6.09823,9.1657-5.71402,1.34858-2.24582Z" fill="#f50057"/><path d="M630.53485,15.41823l30.96682-15.41823s3.20363,.13761,1.75512,1.75512-34.86815,17.25422-34.86815,17.25422l2.14622-3.59111Z" fill="#f50057"/><path d="M622.25659,21.76875s-1.53301,5.82544-6.74525,9.19806c-5.21224,3.37262-34.33944,11.65088-34.33944,11.65088l-4.29243-2.75942,32.19323-17.78292,10.73108-1.22641,2.45282,.91981Z" fill="#f50057"/><path d="M601.77678,73.4544s-5.74028,1.82623-11.38036-.76828c-5.64008-2.59451-28.23385-22.75499-28.23385-22.75499l.0306-5.10278,32.26205,17.65776,6.78427,8.40439,.53729,2.56392Z" fill="#f50057"/><path d="M598.9424,74.17428s4.82364-3.6081,11.00271-3.00719,34.13577,12.23477,34.13577,12.23477l1.6449,4.83049-36.2691-6.09823-9.1657-5.71402-1.34858-2.24582Z" fill="#f50057"/><circle cx="770.80533" cy="23.14846" r="8.58486" fill="#3f3d56"/><circle cx="625.01601" cy="23.91497" r="8.58486" fill="#3f3d56"/></g><g><path d="M431.97235,377.09986l-.8146-89.61684c-.04303-4.75261,3.15577-8.84064,7.77914-9.94141l22.29471-5.30826c2.18831-.52105,4.45635-.02182,6.22337,1.37002,1.76671,1.39161,2.78383,3.47964,2.78985,5.72873l.26662,95.96885c.00451,1.62077-.62321,3.14554-1.76762,4.29325-1.14471,1.14802-2.66767,1.7801-4.28874,1.7801h-28.16931c-2.35712,0-4.29205-1.91748-4.31342-4.27445Z" fill="#2f2e41"/><path d="M440.10902,279.42715l2.1292-.5114v3.22099c0,1.02962,.94013,1.78913,1.91969,1.55065l8.59801-2.09355c1.25292-.30513,2.13744-1.45018,2.13744-2.76756v-2.95026s4.11716-.98891,4.11716-.98891c2.90543-.69795,5.69199,1.54649,5.70935,4.59892l.52906,93.07186c.02207,3.8415-3.01695,6.96755-6.77336,6.96755h-21.26285c-2.32046,0-4.20779-1.91136-4.23044-4.28425l-.81772-85.45607c-.04737-4.9282,3.25324-9.2311,7.94447-10.35798Z" fill="#f50057"/></g><g><path id="uuid-b41c9804-0f5e-428c-b971-84e4b8190e52-197" d="M470.04152,340.32094c11.95133-2.40379,22.87916,1.81431,24.40769,9.42047,1.52854,7.60615-6.92038,15.71848-18.87629,18.12153-4.76273,1.02543-9.70178,.89537-14.40391-.37933l-50.76689,9.54545-3.9716-23.91889,50.46882-6.87069c3.84521-2.99411,8.35168-5.0236,13.14219-5.91852Z" fill="#ffb6b6"/><path d="M274.52031,344.14937c-6.54434-5.40963-9.8079-13.66754-8.73005-22.08939,1.07757-8.42278,6.31581-15.59295,14.01157-19.18093,9.6405-4.4953,21.01785-2.31144,28.31147,5.4325l50.71666,53.85245,84.90025-18.03329,.53715-.11443,3.25071,28.02987-102.13962,30.67696-70.85813-58.57373Z" fill="#e6e6e6"/></g><path d="M323.92005,186.2793c8.25406,6.26786,14.06045,15.3533,15.52193,25.61389,1.07525,7.54897,.05525,16.48201-6.74475,24.72098-8.93904,10.83066-10.38685,30.90492-9.92381,46.51354,.28572,9.63121-8.0715,17.27817-17.64115,16.15398-20.42039-2.39889-30.45639,47.72827-45.43505,54.71831-17.24131,8.04594-32,0-32,0,0,0,5-56,16-72,6.9125-10.05455,7.87602-46.56114,9.12398-61.15612,1.33592-15.6237,9.54145-30.01952,22.75102-38.46888,12.11093-7.74663,28.69792-11.01719,48.34782,3.9043Z" fill="#2f2e41"/></svg>